<svg width="37" height="36" viewBox="0 0 37 36" fill="none" xmlns="http://www.w3.org/2000/svg">
<g clip-path="url(#clip0_242_241)">
<path d="M27.6578 26.91C25.0225 28.8645 21.8135 29.9473 18.5003 30C7.70866 30 1.54199 18 1.54199 18C3.45966 14.5228 6.11941 11.4849 9.34282 9.09M15.2628 6.36C16.324 6.11832 17.4105 5.99751 18.5003 6C29.292 6 35.4587 18 35.4587 18C34.5228 19.7034 33.4068 21.3071 32.1287 22.785M21.7687 21.18C21.3452 21.6221 20.8346 21.9767 20.2673 22.2227C19.7 22.4686 19.0875 22.6009 18.4665 22.6115C17.8455 22.6222 17.2287 22.5111 16.6528 22.2847C16.0769 22.0584 15.5538 21.7215 15.1146 21.2942C14.6754 20.8669 14.3292 20.3579 14.0966 19.7976C13.864 19.2373 13.7497 18.6371 13.7607 18.0329C13.7716 17.4286 13.9076 16.8328 14.1603 16.2808C14.4131 15.7288 14.7776 15.232 15.232 14.82M1.54199 1.5L35.4587 34.5" stroke="#1E1E1E" stroke-width="4" stroke-linecap="round" stroke-linejoin="round"/>
</g>
<defs>
<clipPath id="clip0_242_241">
<rect width="37" height="36" fill="white"/>
</clipPath>
</defs>
</svg>
